<svg data-v-423bf9ae="" xmlns="http://www.w3.org/2000/svg" viewBox="0 0 735 90" class="iconLeft"><!----><!----><!----><g data-v-423bf9ae="" id="754a2173-3781-420e-8a9a-4a8bb830b860" fill="white" transform="matrix(4.743082789406028,0,0,4.743082789406028,135.9488027052031,-2.2173924988581035)"><path d="M6.43 7.63C5.95 7.04 5.28 6.73 4.42 6.73C3.92 6.73 3.46 6.86 3.05 7.10C2.65 7.34 2.30 7.66 1.99 8.06L1.97 3.63L1.32 3.63L0.31 3.63L0.31 3.91C0.31 4.06 0.39 4.14 0.57 4.16L0.66 4.16C0.69 4.16 0.71 4.17 0.76 4.17L0.97 4.17C1.06 4.17 1.19 4.19 1.32 4.19L1.32 13.16L1.32 13.51C2.55 13.78 3.47 13.90 4.10 13.90C4.59 13.90 5.03 13.80 5.40 13.62C5.78 13.44 6.09 13.19 6.36 12.87C6.62 12.54 6.80 12.15 6.94 11.72C7.08 11.28 7.14 10.79 7.14 10.29C7.14 9.10 6.90 8.22 6.43 7.63ZM6.30 11.55C6.19 11.93 6.03 12.26 5.82 12.53C5.61 12.81 5.36 13.01 5.05 13.16C4.75 13.31 4.38 13.38 3.98 13.38C3.61 13.38 2.94 13.29 1.97 13.09L1.97 8.62C2.27 8.20 2.60 7.87 2.98 7.63C3.36 7.39 3.77 7.27 4.23 7.27C4.94 7.27 5.50 7.52 5.88 8.01C6.26 8.50 6.45 9.25 6.45 10.29C6.45 10.75 6.41 11.17 6.30 11.55ZM9.27 4.89C9.32 4.94 9.39 4.98 9.46 5.01C9.53 5.04 9.62 5.07 9.70 5.07C9.79 5.07 9.87 5.04 9.94 5.01C10.01 4.98 10.08 4.94 10.14 4.89C10.19 4.83 10.25 4.76 10.28 4.69C10.30 4.62 10.33 4.54 10.33 4.45C10.33 4.37 10.30 4.30 10.28 4.21C10.25 4.14 10.19 4.07 10.14 4.02C10.08 3.96 10.01 3.91 9.94 3.88C9.87 3.85 9.79 3.84 9.70 3.84C9.62 3.84 9.53 3.85 9.46 3.88C9.39 3.91 9.32 3.96 9.27 4.02C9.21 4.07 9.17 4.14 9.14 4.21C9.11 4.28 9.09 4.37 9.09 4.45C9.09 4.54 9.11 4.62 9.14 4.69C9.17 4.76 9.21 4.83 9.27 4.89ZM10.77 13.29L10.70 13.29L10.58 13.29C10.54 13.29 10.47 13.27 10.37 13.27C10.28 13.27 10.16 13.26 10.04 13.26L10.04 6.85L9.37 6.85L8.36 6.85L8.36 7.13C8.36 7.28 8.46 7.36 8.64 7.38L8.71 7.38C8.74 7.38 8.78 7.39 8.82 7.39L9.03 7.39C9.13 7.39 9.24 7.41 9.37 7.41L9.37 13.26C9.21 13.26 9.07 13.29 8.96 13.29L8.72 13.29L8.64 13.29C8.46 13.30 8.36 13.38 8.36 13.54L8.36 13.82L9.37 13.82L10.04 13.82L11.05 13.82L11.05 13.54C11.05 13.38 10.95 13.30 10.77 13.29ZM14.52 13.93C14.81 13.93 15.09 13.86 15.37 13.75C15.64 13.64 15.86 13.48 16.04 13.29L15.86 12.98C15.82 12.94 15.79 12.92 15.75 12.92C15.72 12.92 15.67 12.94 15.61 12.99C15.55 13.05 15.48 13.09 15.40 13.15C15.32 13.20 15.20 13.26 15.08 13.31C14.95 13.37 14.83 13.38 14.66 13.38C14.52 13.38 14.38 13.36 14.27 13.31C14.15 13.27 14.06 13.20 13.97 13.12C13.89 13.03 13.82 12.92 13.76 12.78C13.71 12.64 13.69 12.49 13.69 12.29L13.69 7.57L15.89 7.57L15.89 7.07L13.69 7.07L13.69 4.41L13.37 4.41C13.31 4.41 13.29 4.44 13.26 4.47C13.23 4.49 13.20 4.54 13.20 4.58L13.03 7.07L11.84 7.15L11.84 7.41C11.84 7.46 11.86 7.49 11.89 7.52C11.91 7.55 11.97 7.57 12.03 7.57L13.02 7.57L13.02 12.33C13.02 12.88 13.15 13.27 13.41 13.54C13.68 13.80 14.04 13.93 14.52 13.93ZM22.30 12.70C22.27 12.66 22.22 12.63 22.16 12.63C22.11 12.63 22.05 12.66 21.97 12.74C21.88 12.82 21.76 12.91 21.62 13.01C21.48 13.10 21.28 13.17 21.06 13.26C20.83 13.34 20.54 13.38 20.20 13.38C19.84 13.38 19.50 13.31 19.21 13.17C18.91 13.03 18.66 12.85 18.45 12.59C18.24 12.33 18.07 12.01 17.96 11.63C17.85 11.26 17.79 10.82 17.79 10.33C17.79 9.86 17.85 9.44 17.96 9.06C18.07 8.68 18.24 8.36 18.45 8.09C18.66 7.83 18.93 7.62 19.24 7.48C19.54 7.34 19.89 7.27 20.30 7.27C20.65 7.27 21.04 7.35 21.49 7.50C21.50 7.69 21.50 7.87 21.52 8.04C21.53 8.20 21.55 8.33 21.56 8.43C21.57 8.53 21.57 8.58 21.57 8.60C21.59 8.82 21.69 8.93 21.88 8.93L22.22 8.93L22.22 7.18L21.85 7.07C21.62 7.00 21.32 6.92 21 6.85C20.68 6.78 20.43 6.75 20.26 6.75C19.75 6.75 19.32 6.82 18.93 7.00C18.54 7.18 18.20 7.42 17.93 7.74C17.67 8.06 17.47 8.44 17.33 8.88C17.19 9.31 17.11 9.80 17.11 10.33C17.11 10.89 17.18 11.40 17.33 11.84C17.47 12.29 17.68 12.66 17.95 12.96C18.21 13.27 18.54 13.51 18.90 13.66C19.26 13.83 19.66 13.92 20.10 13.92C20.37 13.92 20.62 13.89 20.86 13.83C21.10 13.78 21.32 13.72 21.53 13.64C21.74 13.55 21.91 13.44 22.08 13.31C22.25 13.19 22.37 13.06 22.48 12.92ZM26.73 6.73C26.22 6.73 25.77 6.83 25.38 7.00C24.99 7.17 24.65 7.41 24.37 7.71C24.09 8.02 23.90 8.40 23.76 8.85C23.62 9.30 23.53 9.79 23.53 10.33C23.53 10.88 23.62 11.37 23.76 11.80C23.90 12.24 24.09 12.63 24.37 12.94C24.65 13.24 24.99 13.48 25.38 13.65C25.77 13.82 26.22 13.90 26.73 13.90C27.23 13.90 27.66 13.82 28.06 13.65C28.45 13.48 28.78 13.24 29.05 12.94C29.32 12.63 29.54 12.24 29.68 11.80C29.82 11.37 29.89 10.88 29.89 10.33C29.89 9.79 29.82 9.30 29.68 8.85C29.54 8.40 29.32 8.02 29.05 7.71C28.78 7.41 28.45 7.17 28.06 7.00C27.66 6.83 27.23 6.73 26.73 6.73ZM26.73 13.38C26.31 13.38 25.94 13.31 25.63 13.17C25.33 13.03 25.06 12.82 24.85 12.56C24.64 12.29 24.50 11.97 24.39 11.59C24.28 11.21 24.23 10.79 24.23 10.33C24.23 9.87 24.28 9.45 24.39 9.07C24.50 8.69 24.64 8.37 24.85 8.11C25.06 7.84 25.33 7.62 25.63 7.48C25.94 7.34 26.31 7.27 26.73 7.27C27.15 7.27 27.50 7.34 27.80 7.48C28.11 7.62 28.38 7.84 28.59 8.11C28.80 8.37 28.95 8.69 29.05 9.07C29.15 9.45 29.20 9.87 29.20 10.33C29.20 10.79 29.15 11.21 29.05 11.59C28.95 11.97 28.80 12.29 28.59 12.56C28.38 12.82 28.11 13.03 27.80 13.17C27.50 13.31 27.15 13.38 26.73 13.38ZM32.03 4.89C32.09 4.94 32.16 4.98 32.23 5.01C32.30 5.04 32.38 5.07 32.47 5.07C32.55 5.07 32.63 5.04 32.70 5.01C32.77 4.98 32.84 4.94 32.90 4.89C32.96 4.83 33.01 4.76 33.04 4.69C33.07 4.62 33.10 4.54 33.10 4.45C33.10 4.37 33.07 4.30 33.04 4.21C33.01 4.14 32.96 4.07 32.90 4.02C32.84 3.96 32.77 3.91 32.70 3.88C32.63 3.85 32.55 3.84 32.47 3.84C32.38 3.84 32.30 3.85 32.23 3.88C32.16 3.91 32.09 3.96 32.03 4.02C31.98 4.07 31.93 4.14 31.91 4.21C31.88 4.28 31.85 4.37 31.85 4.45C31.85 4.54 31.88 4.62 31.91 4.69C31.93 4.76 31.98 4.83 32.03 4.89ZM33.53 13.29L33.46 13.29L33.35 13.29C33.31 13.29 33.24 13.27 33.14 13.27C33.04 13.27 32.93 13.26 32.80 13.26L32.80 6.85L32.13 6.85L31.12 6.85L31.12 7.13C31.12 7.28 31.22 7.36 31.40 7.38L31.47 7.38C31.50 7.38 31.54 7.39 31.58 7.39L31.79 7.39C31.89 7.39 32.00 7.41 32.13 7.41L32.13 13.26C31.98 13.26 31.84 13.29 31.72 13.29L31.49 13.29L31.40 13.29C31.22 13.30 31.12 13.38 31.12 13.54L31.12 13.82L32.13 13.82L32.80 13.82L33.81 13.82L33.81 13.54C33.81 13.38 33.71 13.30 33.53 13.29ZM42.31 13.29L42.24 13.29L42.13 13.29C42.08 13.29 42.01 13.27 41.92 13.27C41.82 13.27 41.71 13.26 41.58 13.26L41.58 9.37C41.58 8.96 41.52 8.60 41.43 8.27C41.33 7.95 41.19 7.67 40.99 7.45C40.80 7.22 40.56 7.06 40.26 6.93C39.97 6.80 39.63 6.75 39.26 6.75C38.74 6.75 38.26 6.87 37.84 7.11C37.42 7.36 37.06 7.67 36.74 8.08L36.68 7.03C36.67 6.92 36.60 6.86 36.47 6.86L36.11 6.86L35.10 6.86L35.10 7.13C35.10 7.28 35.18 7.36 35.36 7.38L35.45 7.38C35.48 7.38 35.50 7.39 35.55 7.39L35.76 7.39C35.85 7.39 35.98 7.41 36.11 7.41L36.11 13.26C35.94 13.26 35.80 13.29 35.69 13.29L35.46 13.29L35.36 13.29C35.18 13.30 35.10 13.38 35.10 13.54L35.10 13.82L36.11 13.82L36.76 13.82L37.77 13.82L37.77 13.54C37.77 13.38 37.69 13.30 37.51 13.29L37.42 13.29L37.32 13.29C37.28 13.29 37.21 13.27 37.11 13.27C37.02 13.27 36.89 13.26 36.76 13.26L36.76 8.60C37.07 8.19 37.42 7.87 37.81 7.63C38.21 7.39 38.63 7.28 39.09 7.28C39.70 7.28 40.17 7.46 40.46 7.83C40.75 8.20 40.91 8.71 40.91 9.37L40.91 13.82L41.58 13.82L42.59 13.82L42.59 13.54C42.59 13.38 42.49 13.30 42.31 13.29ZM48.43 11.06C48.31 10.86 48.17 10.71 47.99 10.57C47.81 10.43 47.60 10.32 47.38 10.23C47.15 10.15 46.90 10.05 46.66 9.98C46.42 9.91 46.19 9.83 45.95 9.76C45.72 9.69 45.51 9.59 45.33 9.49C45.15 9.39 45.01 9.27 44.90 9.13C44.79 8.99 44.73 8.81 44.73 8.58C44.73 8.40 44.76 8.23 44.84 8.08C44.93 7.92 45.04 7.77 45.19 7.64C45.33 7.52 45.51 7.43 45.72 7.36C45.93 7.29 46.16 7.25 46.41 7.25C46.77 7.25 47.14 7.31 47.52 7.43C47.53 7.60 47.54 7.77 47.56 7.92C47.57 8.08 47.57 8.19 47.59 8.27C47.60 8.36 47.60 8.43 47.60 8.44C47.61 8.67 47.71 8.78 47.91 8.78L48.24 8.78L48.24 7.11C47.52 6.86 46.90 6.75 46.40 6.75C46.05 6.75 45.72 6.80 45.44 6.90C45.16 7.00 44.91 7.14 44.72 7.31C44.52 7.48 44.37 7.69 44.25 7.91C44.14 8.13 44.10 8.37 44.10 8.62C44.10 8.92 44.16 9.16 44.27 9.35C44.38 9.55 44.52 9.70 44.70 9.84C44.88 9.98 45.08 10.09 45.32 10.18C45.54 10.26 45.78 10.35 46.03 10.42C46.27 10.49 46.51 10.57 46.75 10.64C46.97 10.71 47.18 10.81 47.36 10.92C47.54 11.03 47.70 11.16 47.81 11.31C47.92 11.47 47.98 11.65 47.98 11.89C47.98 12.10 47.94 12.29 47.87 12.49C47.78 12.68 47.67 12.84 47.52 12.98C47.36 13.12 47.18 13.23 46.96 13.31C46.73 13.40 46.48 13.44 46.19 13.44C45.65 13.44 45.21 13.37 44.83 13.22C44.81 13.03 44.80 12.87 44.79 12.71C44.77 12.56 44.77 12.43 44.76 12.35C44.74 12.26 44.74 12.19 44.74 12.18C44.73 11.96 44.63 11.84 44.44 11.84L44.10 11.84L44.10 13.54C44.77 13.79 45.46 13.93 46.16 13.93C46.55 13.93 46.89 13.87 47.19 13.76C47.50 13.65 47.75 13.50 47.96 13.30C48.17 13.10 48.33 12.89 48.44 12.63C48.55 12.36 48.61 12.08 48.61 11.77C48.61 11.49 48.54 11.26 48.43 11.06ZM56.36 6.86L55.85 6.86L54.45 6.86L54.45 7.13C54.45 7.28 54.54 7.36 54.73 7.38L54.80 7.38C54.82 7.38 54.85 7.39 54.89 7.39L55.10 7.39C55.20 7.39 55.31 7.41 55.44 7.41L53.30 12.45L53.21 12.66C53.19 12.73 53.17 12.80 53.14 12.87C53.13 12.80 53.09 12.73 53.07 12.66C53.05 12.59 53.03 12.52 53.00 12.45L50.83 7.41C50.99 7.41 51.13 7.39 51.24 7.39C51.35 7.39 51.44 7.38 51.46 7.38L51.55 7.38C51.73 7.36 51.83 7.28 51.83 7.13L51.83 6.86L50.41 6.86L50.41 6.86L49.85 6.86L49.39 6.86L49.39 7.13C49.39 7.28 49.49 7.36 49.67 7.38C49.67 7.38 49.81 7.38 50.09 7.39L52.81 13.57L51.58 16.28L52.05 16.28C52.14 16.28 52.21 16.25 52.25 16.21C52.29 16.17 52.33 16.13 52.36 16.06L56.13 7.39L56.38 7.39C56.46 7.39 56.50 7.38 56.53 7.38L56.60 7.38C56.78 7.36 56.88 7.28 56.88 7.13L56.88 6.86ZM61.94 11.06C61.82 10.86 61.68 10.71 61.50 10.57C61.32 10.43 61.11 10.32 60.89 10.23C60.66 10.15 60.41 10.05 60.17 9.98C59.93 9.91 59.70 9.83 59.46 9.76C59.23 9.69 59.02 9.59 58.84 9.49C58.66 9.39 58.52 9.27 58.41 9.13C58.30 8.99 58.24 8.81 58.24 8.58C58.24 8.40 58.27 8.23 58.35 8.08C58.44 7.92 58.55 7.77 58.70 7.64C58.84 7.52 59.02 7.43 59.23 7.36C59.44 7.29 59.67 7.25 59.92 7.25C60.28 7.25 60.65 7.31 61.03 7.43C61.04 7.60 61.05 7.77 61.07 7.92C61.08 8.08 61.08 8.19 61.10 8.27C61.11 8.36 61.11 8.43 61.11 8.44C61.12 8.67 61.22 8.78 61.42 8.78L61.75 8.78L61.75 7.11C61.03 6.86 60.41 6.75 59.91 6.75C59.56 6.75 59.23 6.80 58.95 6.90C58.67 7.00 58.42 7.14 58.23 7.31C58.03 7.48 57.88 7.69 57.76 7.91C57.65 8.13 57.61 8.37 57.61 8.62C57.61 8.92 57.67 9.16 57.78 9.35C57.89 9.55 58.03 9.70 58.21 9.84C58.39 9.98 58.59 10.09 58.83 10.18C59.05 10.26 59.29 10.35 59.54 10.42C59.78 10.49 60.02 10.57 60.26 10.64C60.48 10.71 60.69 10.81 60.87 10.92C61.05 11.03 61.21 11.16 61.32 11.31C61.43 11.47 61.49 11.65 61.49 11.89C61.49 12.10 61.45 12.29 61.38 12.49C61.29 12.68 61.18 12.84 61.03 12.98C60.87 13.12 60.69 13.23 60.47 13.31C60.24 13.40 59.99 13.44 59.70 13.44C59.16 13.44 58.72 13.37 58.34 13.22C58.32 13.03 58.31 12.87 58.30 12.71C58.28 12.56 58.28 12.43 58.27 12.35C58.25 12.26 58.25 12.19 58.25 12.18C58.24 11.96 58.14 11.84 57.95 11.84L57.61 11.84L57.61 13.54C58.28 13.79 58.97 13.93 59.67 13.93C60.06 13.93 60.40 13.87 60.70 13.76C61.01 13.65 61.26 13.50 61.47 13.30C61.68 13.10 61.84 12.89 61.95 12.63C62.06 12.36 62.12 12.08 62.12 11.77C62.12 11.49 62.05 11.26 61.94 11.06ZM65.58 13.93C65.87 13.93 66.15 13.86 66.43 13.75C66.70 13.64 66.92 13.48 67.10 13.29L66.92 12.98C66.88 12.94 66.85 12.92 66.81 12.92C66.78 12.92 66.72 12.94 66.67 12.99C66.61 13.05 66.54 13.09 66.46 13.15C66.37 13.20 66.26 13.26 66.14 13.31C66.01 13.37 65.88 13.38 65.72 13.38C65.58 13.38 65.44 13.36 65.32 13.31C65.21 13.27 65.11 13.20 65.03 13.12C64.95 13.03 64.88 12.92 64.82 12.78C64.76 12.64 64.75 12.49 64.75 12.29L64.75 7.57L66.95 7.57L66.95 7.07L64.75 7.07L64.75 4.41L64.43 4.41C64.37 4.41 64.34 4.44 64.32 4.47C64.29 4.49 64.26 4.54 64.26 4.58L64.09 7.07L62.90 7.15L62.90 7.41C62.90 7.46 62.92 7.49 62.94 7.52C62.97 7.55 63.03 7.57 63.08 7.57L64.08 7.57L64.08 12.33C64.08 12.88 64.20 13.27 64.47 13.54C64.74 13.80 65.10 13.93 65.58 13.93ZM71.32 6.73C70.83 6.73 70.38 6.83 69.99 7.00C69.59 7.17 69.27 7.41 69.01 7.71C68.74 8.02 68.53 8.39 68.39 8.81C68.25 9.23 68.17 9.69 68.17 10.19C68.17 10.78 68.25 11.31 68.40 11.77C68.56 12.24 68.77 12.61 69.05 12.94C69.33 13.26 69.66 13.50 70.06 13.66C70.45 13.83 70.88 13.90 71.36 13.90C71.62 13.90 71.89 13.89 72.14 13.83C72.39 13.78 72.65 13.71 72.87 13.62C73.09 13.54 73.30 13.44 73.49 13.31C73.67 13.19 73.82 13.06 73.93 12.92L73.75 12.70C73.72 12.66 73.67 12.63 73.61 12.63C73.57 12.63 73.49 12.66 73.39 12.74C73.29 12.82 73.15 12.91 72.97 13.01C72.80 13.10 72.58 13.17 72.32 13.26C72.07 13.34 71.76 13.38 71.41 13.38C71.02 13.38 70.67 13.31 70.35 13.17C70.03 13.03 69.76 12.84 69.54 12.57C69.31 12.31 69.15 11.97 69.02 11.58C68.89 11.19 68.84 10.71 68.84 10.19L68.84 10.07L73.86 10.07C73.93 10.07 73.98 10.05 74.00 10.01C74.03 9.97 74.06 9.90 74.06 9.80C74.06 9.31 73.99 8.88 73.85 8.50C73.71 8.12 73.53 7.78 73.28 7.53C73.04 7.28 72.74 7.08 72.41 6.94C72.07 6.80 71.71 6.73 71.32 6.73ZM71.33 7.24C71.65 7.24 71.93 7.29 72.20 7.41C72.46 7.52 72.69 7.67 72.87 7.88C73.05 8.09 73.21 8.33 73.30 8.62C73.40 8.92 73.46 9.25 73.46 9.63L68.87 9.63C68.91 9.27 68.99 8.93 69.12 8.64C69.24 8.34 69.41 8.09 69.62 7.88C69.83 7.67 70.08 7.52 70.36 7.41C70.64 7.29 70.97 7.24 71.33 7.24ZM86.10 13.29L86.02 13.29L85.92 13.29C85.88 13.29 85.81 13.27 85.71 13.27C85.61 13.27 85.48 13.26 85.36 13.26L85.36 9.37C85.36 8.95 85.30 8.57 85.20 8.25C85.11 7.92 84.97 7.64 84.77 7.42C84.57 7.20 84.34 7.03 84.06 6.92C83.78 6.80 83.48 6.75 83.13 6.75C82.89 6.75 82.64 6.78 82.42 6.85C82.19 6.92 81.98 7.01 81.79 7.15C81.59 7.29 81.41 7.46 81.26 7.67C81.10 7.88 80.99 8.13 80.91 8.43C80.79 7.90 80.60 7.48 80.29 7.18C79.98 6.89 79.58 6.75 79.07 6.75C78.85 6.75 78.64 6.76 78.44 6.83C78.25 6.89 78.06 6.99 77.88 7.10C77.71 7.21 77.55 7.36 77.39 7.52C77.24 7.67 77.10 7.84 76.96 8.04L76.90 7.03C76.89 6.92 76.82 6.86 76.69 6.86L76.33 6.86L75.32 6.86L75.32 7.13C75.32 7.28 75.40 7.36 75.59 7.38L75.67 7.38C75.70 7.38 75.73 7.39 75.77 7.39L75.98 7.39C76.08 7.39 76.20 7.41 76.33 7.41L76.33 13.26C76.16 13.26 76.02 13.29 75.91 13.29L75.68 13.29L75.59 13.29C75.40 13.30 75.32 13.38 75.32 13.54L75.32 13.82L76.33 13.82L76.99 13.82L77.99 13.82L77.99 13.54C77.99 13.38 77.91 13.30 77.73 13.29L77.64 13.29L77.55 13.29C77.50 13.29 77.43 13.27 77.34 13.27C77.24 13.27 77.11 13.26 76.99 13.26L76.99 8.55C77.24 8.15 77.53 7.84 77.85 7.62C78.18 7.39 78.53 7.28 78.90 7.28C79.42 7.28 79.81 7.45 80.08 7.81C80.35 8.18 80.49 8.69 80.49 9.37L80.49 13.82L81.16 13.82L81.16 13.82L82.17 13.82L82.17 13.54C82.17 13.38 82.07 13.30 81.89 13.29L81.82 13.29L81.70 13.29C81.66 13.29 81.59 13.27 81.49 13.27C81.40 13.27 81.28 13.26 81.16 13.26L81.16 9.37C81.16 9.02 81.20 8.72 81.30 8.46C81.40 8.19 81.54 7.97 81.70 7.80C81.87 7.63 82.07 7.49 82.29 7.41C82.52 7.32 82.75 7.28 82.99 7.28C83.54 7.28 83.96 7.46 84.25 7.81C84.55 8.18 84.70 8.68 84.70 9.37L84.70 13.82L85.36 13.82L86.37 13.82L86.37 13.54C86.37 13.38 86.28 13.30 86.10 13.29ZM90.68 6.73C90.17 6.73 89.73 6.83 89.33 7.00C88.94 7.17 88.61 7.41 88.33 7.71C88.05 8.02 87.85 8.40 87.71 8.85C87.57 9.30 87.49 9.79 87.49 10.33C87.49 10.88 87.57 11.37 87.71 11.80C87.85 12.24 88.05 12.63 88.33 12.94C88.61 13.24 88.94 13.48 89.33 13.65C89.73 13.82 90.17 13.90 90.68 13.90C91.18 13.90 91.62 13.82 92.01 13.65C92.40 13.48 92.74 13.24 93.00 12.94C93.27 12.63 93.49 12.24 93.63 11.80C93.77 11.37 93.84 10.88 93.84 10.33C93.84 9.79 93.77 9.30 93.63 8.85C93.49 8.40 93.27 8.02 93.00 7.71C92.74 7.41 92.40 7.17 92.01 7.00C91.62 6.83 91.18 6.73 90.68 6.73ZM90.68 13.38C90.26 13.38 89.89 13.31 89.59 13.17C89.28 13.03 89.01 12.82 88.80 12.56C88.59 12.29 88.45 11.97 88.34 11.59C88.23 11.21 88.19 10.79 88.19 10.33C88.19 9.87 88.23 9.45 88.34 9.07C88.45 8.69 88.59 8.37 88.80 8.11C89.01 7.84 89.28 7.62 89.59 7.48C89.89 7.34 90.26 7.27 90.68 7.27C91.10 7.27 91.45 7.34 91.76 7.48C92.06 7.62 92.33 7.84 92.54 8.11C92.75 8.37 92.90 8.69 93.00 9.07C93.10 9.45 93.16 9.87 93.16 10.33C93.16 10.79 93.10 11.21 93.00 11.59C92.90 11.97 92.75 12.29 92.54 12.56C92.33 12.82 92.06 13.03 91.76 13.17C91.45 13.31 91.10 13.38 90.68 13.38ZM102.31 13.29L102.24 13.29L102.13 13.29C102.09 13.29 102.02 13.27 101.92 13.27C101.82 13.27 101.71 13.26 101.58 13.26L101.58 9.37C101.58 8.96 101.53 8.60 101.43 8.27C101.33 7.95 101.19 7.67 101.00 7.45C100.80 7.22 100.56 7.06 100.27 6.93C99.97 6.80 99.64 6.75 99.26 6.75C98.74 6.75 98.27 6.87 97.85 7.11C97.43 7.36 97.06 7.67 96.74 8.08L96.68 7.03C96.67 6.92 96.60 6.86 96.47 6.86L96.11 6.86L95.10 6.86L95.10 7.13C95.10 7.28 95.19 7.36 95.37 7.38L95.45 7.38C95.48 7.38 95.51 7.39 95.55 7.39L95.76 7.39C95.86 7.39 95.98 7.41 96.11 7.41L96.11 13.26C95.94 13.26 95.80 13.29 95.69 13.29L95.47 13.29L95.37 13.29C95.19 13.30 95.10 13.38 95.10 13.54L95.10 13.82L96.11 13.82L96.77 13.82L97.78 13.82L97.78 13.54C97.78 13.38 97.69 13.30 97.51 13.29L97.43 13.29L97.33 13.29C97.29 13.29 97.22 13.27 97.12 13.27C97.02 13.27 96.89 13.26 96.77 13.26L96.77 8.60C97.08 8.19 97.43 7.87 97.82 7.63C98.21 7.39 98.63 7.28 99.09 7.28C99.71 7.28 100.17 7.46 100.46 7.83C100.76 8.20 100.91 8.71 100.91 9.37L100.91 13.82L101.58 13.82L102.59 13.82L102.59 13.54C102.59 13.38 102.49 13.30 102.31 13.29ZM106.27 13.29L106.20 13.29L106.09 13.29C106.05 13.29 105.98 13.27 105.88 13.27C105.78 13.27 105.67 13.26 105.55 13.26L105.55 3.63L104.87 3.63L103.87 3.63L103.87 3.91C103.87 4.06 103.96 4.14 104.15 4.16L104.22 4.16C104.24 4.16 104.29 4.17 104.33 4.17L104.54 4.17C104.64 4.17 104.75 4.19 104.87 4.19L104.87 13.26C104.72 13.26 104.58 13.29 104.47 13.29L104.23 13.29L104.15 13.29C103.96 13.30 103.87 13.38 103.87 13.54L103.87 13.82L104.87 13.82L105.55 13.82L106.55 13.82L106.55 13.54C106.55 13.38 106.46 13.30 106.27 13.29ZM108.70 4.89C108.75 4.94 108.82 4.98 108.89 5.01C108.96 5.04 109.05 5.07 109.13 5.07C109.21 5.07 109.30 5.04 109.37 5.01C109.44 4.98 109.51 4.94 109.56 4.89C109.62 4.83 109.68 4.76 109.70 4.69C109.73 4.62 109.76 4.54 109.76 4.45C109.76 4.37 109.73 4.30 109.70 4.21C109.68 4.14 109.62 4.07 109.56 4.02C109.51 3.96 109.44 3.91 109.37 3.88C109.30 3.85 109.21 3.84 109.13 3.84C109.05 3.84 108.96 3.85 108.89 3.88C108.82 3.91 108.75 3.96 108.70 4.02C108.64 4.07 108.60 4.14 108.57 4.21C108.54 4.28 108.51 4.37 108.51 4.45C108.51 4.54 108.54 4.62 108.57 4.69C108.60 4.76 108.64 4.83 108.70 4.89ZM110.19 13.29L110.12 13.29L110.01 13.29C109.97 13.29 109.90 13.27 109.80 13.27C109.70 13.27 109.59 13.26 109.47 13.26L109.47 6.85L108.79 6.85L107.79 6.85L107.79 7.13C107.79 7.28 107.88 7.36 108.07 7.38L108.14 7.38C108.16 7.38 108.21 7.39 108.25 7.39L108.46 7.39C108.56 7.39 108.67 7.41 108.79 7.41L108.79 13.26C108.64 13.26 108.50 13.29 108.39 13.29L108.15 13.29L108.07 13.29C107.88 13.30 107.79 13.38 107.79 13.54L107.79 13.82L108.79 13.82L109.47 13.82L110.47 13.82L110.47 13.54C110.47 13.38 110.38 13.30 110.19 13.29ZM118.97 13.29L118.90 13.29L118.79 13.29C118.75 13.29 118.68 13.27 118.58 13.27C118.48 13.27 118.37 13.26 118.24 13.26L118.24 9.37C118.24 8.96 118.19 8.60 118.09 8.27C117.99 7.95 117.85 7.67 117.66 7.45C117.46 7.22 117.22 7.06 116.93 6.93C116.63 6.80 116.30 6.75 115.92 6.75C115.40 6.75 114.93 6.87 114.51 7.11C114.09 7.36 113.72 7.67 113.40 8.08L113.34 7.03C113.33 6.92 113.26 6.86 113.13 6.86L112.77 6.86L111.76 6.86L111.76 7.13C111.76 7.28 111.85 7.36 112.03 7.38L112.11 7.38C112.14 7.38 112.17 7.39 112.21 7.39L112.42 7.39C112.52 7.39 112.64 7.41 112.77 7.41L112.77 13.26C112.60 13.26 112.46 13.29 112.35 13.29L112.13 13.29L112.03 13.29C111.85 13.30 111.76 13.38 111.76 13.54L111.76 13.82L112.77 13.82L113.43 13.82L114.44 13.82L114.44 13.54C114.44 13.38 114.35 13.30 114.17 13.29L114.09 13.29L113.99 13.29C113.95 13.29 113.88 13.27 113.78 13.27C113.68 13.27 113.55 13.26 113.43 13.26L113.43 8.60C113.74 8.19 114.09 7.87 114.48 7.63C114.87 7.39 115.29 7.28 115.75 7.28C116.37 7.28 116.83 7.46 117.12 7.83C117.42 8.20 117.57 8.71 117.57 9.37L117.57 13.82L118.24 13.82L119.25 13.82L119.25 13.54C119.25 13.38 119.15 13.30 118.97 13.29ZM123.52 6.73C123.03 6.73 122.58 6.83 122.19 7.00C121.80 7.17 121.48 7.41 121.21 7.71C120.95 8.02 120.74 8.39 120.60 8.81C120.46 9.23 120.37 9.69 120.37 10.19C120.37 10.78 120.46 11.31 120.61 11.77C120.76 12.24 120.97 12.61 121.25 12.94C121.53 13.26 121.87 13.50 122.26 13.66C122.65 13.83 123.09 13.90 123.56 13.90C123.83 13.90 124.10 13.89 124.35 13.83C124.60 13.78 124.85 13.71 125.08 13.62C125.30 13.54 125.51 13.44 125.69 13.31C125.87 13.19 126.03 13.06 126.14 12.92L125.96 12.70C125.93 12.66 125.87 12.63 125.82 12.63C125.78 12.63 125.69 12.66 125.59 12.74C125.50 12.82 125.36 12.91 125.17 13.01C125.01 13.10 124.78 13.17 124.53 13.26C124.28 13.34 123.97 13.38 123.62 13.38C123.23 13.38 122.88 13.31 122.56 13.17C122.23 13.03 121.97 12.84 121.74 12.57C121.52 12.31 121.35 11.97 121.23 11.58C121.10 11.19 121.04 10.71 121.04 10.19L121.04 10.07L126.07 10.07C126.14 10.07 126.18 10.05 126.21 10.01C126.24 9.97 126.27 9.90 126.27 9.80C126.27 9.31 126.20 8.88 126.06 8.50C125.92 8.12 125.73 7.78 125.48 7.53C125.24 7.28 124.95 7.08 124.61 6.94C124.28 6.80 123.91 6.73 123.52 6.73ZM123.54 7.24C123.86 7.24 124.14 7.29 124.40 7.41C124.67 7.52 124.89 7.67 125.08 7.88C125.26 8.09 125.41 8.33 125.51 8.62C125.61 8.92 125.66 9.25 125.66 9.63L121.07 9.63C121.11 9.27 121.20 8.93 121.32 8.64C121.45 8.34 121.62 8.09 121.83 7.88C122.04 7.67 122.29 7.52 122.57 7.41C122.85 7.29 123.17 7.24 123.54 7.24Z"></path></g><!----><g data-v-423bf9ae="" id="201b31cb-3c0e-41e6-b51f-bf040a3cfc59" transform="matrix(2.7357147569873437,0,0,2.7357147569873437,-10.80199762680823,-22.892947282874616)" stroke="none" fill="white"><path d="M22.895 20.572H16.96a.644.644 0 0 0-.644.644v4.94a8.193 8.193 0 1 0 .51 13.945l6.045.041a.644.644 0 0 0 .644-.643V21.216a.644.644 0 0 0-.62-.644zM5.115 33.289a7.134 7.134 0 1 1 7.134 7.14s-6.87-.152-7.134-7.14zm17.13 5.566h-3.974c3.079-3.3 3.3-8.831-.679-11.904v-5.086h4.647l.006 16.99zM31.509 26.53h-5.911a.644.644 0 0 0-.644.643v12.244c0 .355.288.644.644.644h5.91a.644.644 0 0 0 .644-.644V27.179a.644.644 0 0 0-.637-.65h-.006zm-.644 12.237h-4.641v-10.92h4.64v10.92zM40.23 16.95h-5.935a.644.644 0 0 0-.644.643v22.17c0 .355.289.643.644.643h5.935a.644.644 0 0 0 .643-.644V17.6a.644.644 0 0 0-.637-.65h-.006zm-.668 22.162H34.94v-20.87h4.623v20.87zM19.383 16.042a1.756 1.756 0 1 0 0-3.511 1.756 1.756 0 0 0 0 3.511zm0-2.417a.667.667 0 1 1-.667.667.673.673 0 0 1 .667-.667zM27.998 22.509a1.756 1.756 0 1 0 0-3.512 1.756 1.756 0 0 0 0 3.512zm.667-1.756a.667.667 0 1 1-.667-.667c.368 0 .667.299.667.667zM39.07 10.277a1.756 1.756 0 0 0-3.51 0 1.645 1.645 0 0 0 1.755 1.692 1.668 1.668 0 0 0 1.756-1.692zm-1.755-.667a.667.667 0 1 1-.006 0h.006zM9.715 23.586c.97 0 1.756-.786 1.756-1.756-.019-.4-.16-.784-.404-1.1a1.756 1.756 0 1 0-1.352 2.85v.006zm0-2.417a.667.667 0 1 1-.667.667.673.673 0 0 1 .667-.667zM45.251 14.713a1.756 1.756 0 1 0 0 3.512 1.756 1.756 0 0 0 0-3.512zm0 2.418a.667.667 0 1 1 .667-.668.673.673 0 0 1-.667.662v.006zM12.641 19.717c-.28.234-.585.357-.778.1-.193-.258-.047-.515.234-.75.28-.233.585-.362.778-.099.193.264.053.51-.234.75zM14.69 18.038c-.281.234-.586.357-.779.1-.193-.258-.047-.516.234-.75.281-.234.585-.363.779-.1s.058.516-.235.75zM16.662 16.463c-.281.234-.586.357-.779.1-.193-.258-.046-.515.234-.75s.586-.362.779-.099.047.527-.234.75zM25.364 19.167c.281.234.586.357.779.1.193-.258.047-.515-.234-.75-.281-.234-.586-.362-.779-.099-.193.263-.047.492.234.75zM23.573 17.687c.281.234.586.357.779.099.193-.257.047-.515-.234-.75-.281-.233-.585-.362-.779-.099-.193.264-.046.515.234.75zM21.648 16.177c.28.234.585.357.778.1.194-.258.047-.516-.234-.75s-.585-.363-.778-.1c-.193.264-.047.516.234.75zM30.678 18.395c-.24.275-.503.439-.755.216-.251-.222-.123-.503.117-.778s.504-.44.755-.217c.252.223.123.504-.117.779zM32.364 16.428c-.252.27-.515.422-.76.2s-.112-.51.14-.773c.251-.264.515-.428.76-.2.246.229.106.504-.14.773zM34.114 14.515c-.24.28-.498.444-.755.228-.258-.217-.129-.504.105-.779s.498-.45.755-.228c.258.223.135.503-.105.779zM35.594 12.882c-.245.269-.509.433-.76.21-.252-.222-.117-.503.128-.778s.51-.433.761-.21.117.503-.129.778zM41.903 14.275c.281.234.586.357.779.099.193-.257.047-.515-.234-.75-.281-.233-.586-.362-.779-.099-.193.264-.047.515.234.75zM39.972 12.765c.281.234.585.357.778.1.194-.258.047-.516-.234-.75-.28-.234-.585-.363-.778-.1-.193.264-.041.516.234.75z"></path><path d="M14.904 35.87c.023-.17-.1-.292-.207-.43-.108-.134-.163-.233-.342-.257a.54.54 0 0 0-.44.112 2.912 2.912 0 0 1-1.756.567c-.661 0-1.256-.252-1.764-.75-.511-.5-.77-1.1-.77-1.784 0-.684.261-1.287.778-1.792.516-.503 1.11-.759 1.764-.759.643 0 1.227.189 1.739.56.145.119.187.134.359.114.173-.024.281-.14.39-.276.106-.134.193-.334.169-.514a.504.504 0 0 0-.157-.316c-.478-.389-1.022-.613-1.583-.737V28.51c0-.224-.181-.229-.405-.229s-.405.005-.405.229v.998c-.012 0-.022-.003-.034-.003a4.04 4.04 0 0 0-.914.122V28.51c0-.224-.181-.229-.405-.229s-.405.005-.405.229v1.42c-.358.18-.7.405-1.007.704-.767.749-1.141 1.624-1.141 2.678 0 1.04.384 1.943 1.142 2.686.307.301.648.526 1.006.706v1.374c0 .224.181.231.405.231s.405-.007.405-.23v-1.075c.293.069.595.115.914.115l.034-.003v.962c0 .224.181.231.405.231s.405-.007.405-.23v-1.062a4.285 4.285 0 0 0 1.59-.71.713.713 0 0 0 .23-.437z"></path></g><!----></svg>